<svg width="1003" height="82" viewBox="0 0 1003 82" fill="none" xmlns="http://www.w3.org/2000/svg">
<path d="M50.096 57.632H22.928C19.92 64.416 18.416 69.12 18.416 71.744C18.416 73.664 19.12 74.88 20.528 75.392C22 75.904 24.176 76.16 27.056 76.16V80H0.752V76.16C2.288 75.968 3.6 75.712 4.688 75.392C5.84 75.072 6.832 74.624 7.664 74.048C8.56 73.472 9.328 72.736 9.968 71.84C10.608 70.88 11.216 69.728 11.792 68.384L37.04 5.12H44.144L67.088 61.184C68.432 64.448 69.552 67.008 70.448 68.864C71.408 70.72 72.4 72.16 73.424 73.184C74.512 74.144 75.728 74.816 77.072 75.2C78.48 75.584 80.272 75.872 82.448 76.064V80H46.16V76.064C49.232 75.936 51.44 75.616 52.784 75.104C54.128 74.592 54.8 73.568 54.8 72.032C54.8 71.136 54.576 69.984 54.128 68.576C53.68 67.168 53.072 65.44 52.304 63.392L50.096 57.632ZM25.136 51.872H47.984L36.944 22.784H36.56L25.136 51.872ZM121.734 44.864C121.734 42.304 121.67 40.288 121.542 38.816C121.414 37.28 121.062 36.128 120.486 35.36C119.91 34.528 119.046 33.984 117.894 33.728C116.806 33.408 115.302 33.152 113.382 32.96V29.12H135.078V58.208C135.078 62.112 135.11 65.184 135.174 67.424C135.302 69.6 135.494 71.232 135.75 72.32C135.942 73.152 136.166 73.824 136.422 74.336C136.678 74.784 137.094 75.168 137.67 75.488C138.246 75.744 139.014 75.936 139.974 76.064C140.998 76.128 142.31 76.16 143.91 76.16V79.904L124.806 81.056L123.75 72.512H123.366C121.702 75.2 119.366 77.28 116.358 78.752C113.35 80.224 109.99 80.96 106.278 80.96C99.4298 80.96 94.2138 78.528 90.6298 73.664C87.8778 69.952 86.5018 64.672 86.5018 57.824V44.864C86.5018 42.24 86.4378 40.192 86.3098 38.72C86.1818 37.184 85.8298 36.032 85.2538 35.264C84.7418 34.496 83.9418 33.984 82.8538 33.728C81.7658 33.408 80.2618 33.152 78.3418 32.96V29.12H99.8458V56.288C99.8458 62.752 100.646 67.456 102.246 70.4C103.846 73.28 106.406 74.72 109.926 74.72C113.702 74.72 116.614 72.992 118.662 69.536C120.71 66.208 121.734 61.312 121.734 54.848V44.864ZM147.556 34.4V30.08C151.396 28.992 154.596 27.36 157.156 25.184C159.78 22.944 161.732 20.384 163.012 17.504H167.908V29.12H178.948V34.4H167.908V63.872C167.908 67.84 168.324 70.656 169.156 72.32C170.052 73.984 171.524 74.816 173.572 74.816C176.068 74.816 177.956 73.664 179.236 71.36L181.252 74.144C179.46 78.688 175.236 80.96 168.58 80.96C164.164 80.96 160.708 79.936 158.212 77.888C155.78 75.84 154.564 72.96 154.564 69.248V34.4H147.556ZM213.301 28.16C217.141 28.16 220.757 28.832 224.149 30.176C227.605 31.456 230.613 33.248 233.173 35.552C235.797 37.856 237.845 40.608 239.317 43.808C240.853 46.944 241.621 50.4 241.621 54.176C241.621 58.08 240.853 61.664 239.317 64.928C237.845 68.192 235.797 71.008 233.173 73.376C230.613 75.744 227.605 77.6 224.149 78.944C220.757 80.288 217.141 80.96 213.301 80.96C209.525 80.96 205.941 80.32 202.549 79.04C199.157 77.696 196.181 75.84 193.621 73.472C191.061 71.104 189.045 68.288 187.573 65.024C186.101 61.696 185.365 58.08 185.365 54.176C185.365 50.4 186.101 46.912 187.573 43.712C189.045 40.512 191.061 37.76 193.621 35.456C196.181 33.152 199.157 31.36 202.549 30.08C205.941 28.8 209.525 28.16 213.301 28.16ZM213.301 33.728C211.381 33.728 209.621 34.24 208.021 35.264C206.421 36.224 205.045 37.6 203.893 39.392C202.805 41.184 201.941 43.36 201.301 45.92C200.725 48.416 200.437 51.2 200.437 54.272C200.437 57.472 200.725 60.352 201.301 62.912C201.941 65.472 202.805 67.648 203.893 69.44C205.045 71.232 206.389 72.64 207.925 73.664C209.525 74.624 211.317 75.104 213.301 75.104C215.285 75.104 217.077 74.624 218.677 73.664C220.341 72.64 221.749 71.232 222.901 69.44C224.053 67.584 224.949 65.376 225.589 62.816C226.229 60.256 226.549 57.408 226.549 54.272C226.549 51.2 226.229 48.416 225.589 45.92C224.949 43.424 224.053 41.28 222.901 39.488C221.749 37.632 220.341 36.224 218.677 35.264C217.077 34.24 215.285 33.728 213.301 33.728ZM310.044 26.624C310.044 33.536 307.356 38.816 301.98 42.464C296.604 46.048 288.796 47.84 278.556 47.84H270.396V64.736C270.396 67.168 270.556 69.152 270.876 70.688C271.196 72.16 271.868 73.312 272.892 74.144C273.916 74.976 275.324 75.52 277.116 75.776C278.908 76.032 281.308 76.16 284.316 76.16V80H246.204V76.16C248.316 76.096 250.044 75.904 251.388 75.584C252.732 75.264 253.756 74.72 254.46 73.952C255.164 73.184 255.644 72.096 255.9 70.688C256.156 69.28 256.284 67.456 256.284 65.216V20.864C256.284 18.624 256.156 16.832 255.9 15.488C255.708 14.08 255.292 12.992 254.652 12.224C254.012 11.392 253.084 10.848 251.868 10.592C250.716 10.272 249.18 10.048 247.26 9.92V6.08H280.476C290.204 6.08 297.564 7.808 302.556 11.264C307.548 14.72 310.044 19.84 310.044 26.624ZM270.396 42.08H276.636C282.844 42.08 287.388 40.832 290.268 38.336C293.148 35.84 294.588 31.904 294.588 26.528C294.588 21.728 293.372 18.016 290.94 15.392C288.508 12.768 284.7 11.456 279.516 11.456H272.124C270.972 11.456 270.396 12 270.396 13.088V42.08ZM340.707 28.16C344.547 28.16 348.163 28.832 351.555 30.176C355.011 31.456 358.019 33.248 360.579 35.552C363.203 37.856 365.251 40.608 366.723 43.808C368.259 46.944 369.027 50.4 369.027 54.176C369.027 58.08 368.259 61.664 366.723 64.928C365.251 68.192 363.203 71.008 360.579 73.376C358.019 75.744 355.011 77.6 351.555 78.944C348.163 80.288 344.547 80.96 340.707 80.96C336.931 80.96 333.347 80.32 329.955 79.04C326.563 77.696 323.587 75.84 321.027 73.472C318.467 71.104 316.451 68.288 314.979 65.024C313.507 61.696 312.771 58.08 312.771 54.176C312.771 50.4 313.507 46.912 314.979 43.712C316.451 40.512 318.467 37.76 321.027 35.456C323.587 33.152 326.563 31.36 329.955 30.08C333.347 28.8 336.931 28.16 340.707 28.16ZM340.707 33.728C338.787 33.728 337.027 34.24 335.427 35.264C333.827 36.224 332.451 37.6 331.299 39.392C330.211 41.184 329.347 43.36 328.707 45.92C328.131 48.416 327.843 51.2 327.843 54.272C327.843 57.472 328.131 60.352 328.707 62.912C329.347 65.472 330.211 67.648 331.299 69.44C332.451 71.232 333.795 72.64 335.331 73.664C336.931 74.624 338.723 75.104 340.707 75.104C342.691 75.104 344.483 74.624 346.083 73.664C347.747 72.64 349.155 71.232 350.307 69.44C351.459 67.584 352.355 65.376 352.995 62.816C353.635 60.256 353.955 57.408 353.955 54.272C353.955 51.2 353.635 48.416 352.995 45.92C352.355 43.424 351.459 41.28 350.307 39.488C349.155 37.632 347.747 36.224 346.083 35.264C344.483 34.24 342.691 33.728 340.707 33.728ZM396.306 64.256C396.306 66.816 396.402 68.864 396.594 70.4C396.786 71.936 397.17 73.12 397.746 73.952C398.322 74.784 399.154 75.36 400.242 75.68C401.33 75.936 402.802 76.096 404.658 76.16V80H374.418V76.16C376.21 76.096 377.65 75.904 378.738 75.584C379.89 75.2 380.754 74.624 381.33 73.856C381.97 73.024 382.386 71.904 382.578 70.496C382.834 69.024 382.962 67.168 382.962 64.928V25.28C382.962 21.568 382.898 18.528 382.77 16.16C382.642 13.728 382.482 12.064 382.29 11.168C381.97 9.568 381.234 8.512 380.082 7.99999C378.994 7.488 376.978 7.232 374.034 7.232V3.96799L396.306 0.319996V64.256ZM458.559 71.072C452.735 77.664 445.471 80.96 436.767 80.96C432.799 80.96 429.183 80.352 425.919 79.136C422.719 77.856 419.967 76.096 417.663 73.856C415.359 71.552 413.567 68.832 412.287 65.696C411.007 62.56 410.367 59.072 410.367 55.232C410.367 51.264 411.039 47.648 412.383 44.384C413.727 41.056 415.615 38.208 418.047 35.84C420.543 33.408 423.455 31.52 426.783 30.176C430.175 28.832 433.887 28.16 437.919 28.16C444.703 28.16 449.983 29.984 453.759 33.632C457.535 37.28 459.423 42.4 459.423 48.992C459.423 50.016 459.263 50.656 458.943 50.912C458.623 51.104 457.727 51.2 456.255 51.2H425.343C425.087 51.776 424.959 52.832 424.959 54.368C424.959 60.64 426.303 65.6 428.991 69.248C431.743 72.896 435.455 74.72 440.127 74.72C442.815 74.72 445.471 74.112 448.095 72.896C450.783 71.68 453.375 69.952 455.871 67.712L458.559 71.072ZM439.935 45.824C442.495 45.824 444.127 45.696 444.831 45.44C445.599 45.12 445.983 44.416 445.983 43.328C445.983 40.512 445.183 38.208 443.583 36.416C441.983 34.624 439.967 33.728 437.535 33.728C434.783 33.728 432.319 34.88 430.143 37.184C428.031 39.424 426.655 42.304 426.015 45.824H439.935ZM514.715 71.072C508.891 77.664 501.627 80.96 492.923 80.96C488.955 80.96 485.339 80.352 482.075 79.136C478.875 77.856 476.123 76.096 473.819 73.856C471.515 71.552 469.723 68.832 468.443 65.696C467.163 62.56 466.523 59.072 466.523 55.232C466.523 51.264 467.195 47.648 468.539 44.384C469.883 41.056 471.771 38.208 474.203 35.84C476.699 33.408 479.611 31.52 482.939 30.176C486.331 28.832 490.043 28.16 494.075 28.16C500.859 28.16 506.139 29.984 509.915 33.632C513.691 37.28 515.579 42.4 515.579 48.992C515.579 50.016 515.419 50.656 515.099 50.912C514.779 51.104 513.883 51.2 512.411 51.2H481.499C481.243 51.776 481.115 52.832 481.115 54.368C481.115 60.64 482.459 65.6 485.147 69.248C487.899 72.896 491.611 74.72 496.283 74.72C498.971 74.72 501.627 74.112 504.251 72.896C506.939 71.68 509.531 69.952 512.027 67.712L514.715 71.072ZM496.091 45.824C498.651 45.824 500.283 45.696 500.987 45.44C501.755 45.12 502.139 44.416 502.139 43.328C502.139 40.512 501.339 38.208 499.739 36.416C498.139 34.624 496.123 33.728 493.691 33.728C490.939 33.728 488.475 34.88 486.299 37.184C484.187 39.424 482.811 42.304 482.171 45.824H496.091ZM543.799 65.12C543.799 67.616 543.895 69.6 544.087 71.072C544.343 72.48 544.823 73.568 545.527 74.336C546.231 75.104 547.255 75.616 548.599 75.872C549.943 76.064 551.735 76.16 553.975 76.16V80H521.911V76.16C523.831 76.032 525.367 75.84 526.519 75.584C527.671 75.328 528.535 74.816 529.111 74.048C529.687 73.28 530.039 72.192 530.167 70.784C530.359 69.312 530.455 67.36 530.455 64.928V53.216C530.455 49.248 530.359 46.08 530.167 43.712C529.975 41.344 529.559 39.52 528.919 38.24C528.279 36.96 527.351 36.128 526.135 35.744C524.983 35.296 523.447 35.072 521.527 35.072V31.712L540.727 28.16L542.263 39.2H542.647C544.375 35.808 546.647 33.12 549.463 31.136C552.279 29.152 555.255 28.16 558.391 28.16C560.823 28.16 562.807 28.768 564.343 29.984C565.879 31.2 566.647 32.736 566.647 34.592C566.647 36.64 566.039 38.368 564.823 39.776C563.671 41.184 562.071 41.888 560.023 41.888C559.063 41.888 558.199 41.696 557.431 41.312C556.663 40.928 555.959 40.512 555.319 40.064C554.743 39.552 554.135 39.104 553.495 38.72C552.919 38.272 552.311 38.048 551.671 38.048C550.455 38.048 549.303 38.848 548.215 40.448C547.127 42.048 546.231 44.192 545.527 46.88C545.015 48.8 544.599 50.976 544.279 53.408C543.959 55.776 543.799 58.144 543.799 60.512V65.12ZM591.516 64.256C591.516 66.816 591.612 68.864 591.804 70.4C591.996 71.936 592.38 73.12 592.956 73.952C593.532 74.784 594.364 75.36 595.452 75.68C596.54 75.936 598.012 76.096 599.868 76.16V80H569.628V76.16C571.42 76.096 572.86 75.904 573.948 75.584C575.1 75.2 575.964 74.624 576.54 73.856C577.18 73.024 577.596 71.904 577.788 70.496C578.044 69.024 578.172 67.168 578.172 64.928V53.12C578.172 49.408 578.108 46.368 577.98 44C577.852 41.568 577.692 39.904 577.5 39.008C577.18 37.408 576.444 36.352 575.292 35.84C574.204 35.328 572.188 35.072 569.244 35.072V31.808L591.516 28.16V64.256ZM577.404 7.808C577.404 5.696 578.108 3.936 579.516 2.528C580.988 1.056 582.748 0.319996 584.796 0.319996C586.908 0.319996 588.668 1.056 590.076 2.528C591.548 3.936 592.284 5.696 592.284 7.808C592.284 9.856 591.548 11.616 590.076 13.088C588.668 14.496 586.908 15.2 584.796 15.2C582.748 15.2 580.988 14.496 579.516 13.088C578.108 11.616 577.404 9.856 577.404 7.808ZM626.299 64.16C626.299 66.848 626.363 68.96 626.491 70.496C626.619 72.032 626.971 73.216 627.547 74.048C628.123 74.816 628.955 75.328 630.043 75.584C631.131 75.84 632.635 76.032 634.555 76.16V80H604.219V76.16C606.139 76.032 607.675 75.84 608.827 75.584C609.979 75.328 610.843 74.816 611.419 74.048C611.995 73.28 612.379 72.192 612.571 70.784C612.763 69.312 612.859 67.36 612.859 64.928V53.024C612.859 49.376 612.795 46.336 612.667 43.904C612.603 41.472 612.443 39.808 612.187 38.912C611.995 38.08 611.739 37.44 611.419 36.992C611.163 36.48 610.715 36.096 610.075 35.84C609.499 35.52 608.731 35.328 607.771 35.264C606.811 35.136 605.563 35.072 604.027 35.072V31.808L622.555 28.16L623.707 36.512H624.283C626.971 33.504 629.659 31.36 632.347 30.08C635.099 28.8 638.267 28.16 641.851 28.16C646.075 28.16 649.563 28.896 652.315 30.368C655.067 31.84 657.147 33.952 658.555 36.704H658.939C661.243 34.016 663.995 31.936 667.195 30.464C670.395 28.928 673.819 28.16 677.467 28.16C681.307 28.16 684.635 28.64 687.451 29.6C690.331 30.56 692.571 31.936 694.171 33.728C695.451 35.2 696.379 37.12 696.955 39.488C697.595 41.856 697.915 45.152 697.915 49.376V64.16C697.915 66.784 697.979 68.864 698.107 70.4C698.299 71.936 698.683 73.12 699.259 73.952C699.835 74.784 700.667 75.328 701.755 75.584C702.843 75.84 704.347 76.032 706.267 76.16V80H675.931V76.16C677.851 76.096 679.355 75.936 680.443 75.68C681.595 75.36 682.459 74.816 683.035 74.048C683.675 73.216 684.059 72.096 684.187 70.688C684.379 69.28 684.475 67.36 684.475 64.928V52.352C684.475 49.024 684.283 46.208 683.899 43.904C683.515 41.6 682.907 39.744 682.075 38.336C681.243 36.928 680.123 35.936 678.715 35.36C677.371 34.72 675.707 34.4 673.723 34.4C671.483 34.4 669.627 34.944 668.155 36.032C666.747 37.12 665.563 38.528 664.603 40.256C662.939 43.264 662.107 47.008 662.107 51.488V64.16C662.107 66.784 662.171 68.864 662.299 70.4C662.427 71.936 662.779 73.12 663.355 73.952C663.931 74.784 664.763 75.328 665.851 75.584C667.003 75.84 668.571 76.032 670.555 76.16V80H640.123V76.16C642.043 76.032 643.547 75.84 644.635 75.584C645.787 75.328 646.651 74.816 647.227 74.048C647.867 73.28 648.251 72.192 648.379 70.784C648.571 69.312 648.667 67.36 648.667 64.928V52.352C648.667 49.024 648.475 46.208 648.091 43.904C647.707 41.6 647.067 39.744 646.171 38.336C645.339 36.928 644.219 35.936 642.811 35.36C641.403 34.72 639.643 34.4 637.531 34.4C635.419 34.4 633.659 34.912 632.251 35.936C630.907 36.96 629.787 38.336 628.891 40.064C628.059 41.6 627.419 43.36 626.971 45.344C626.523 47.328 626.299 49.376 626.299 51.488V64.16ZM732.422 64.256C732.422 66.816 732.518 68.864 732.71 70.4C732.902 71.936 733.286 73.12 733.862 73.952C734.438 74.784 735.27 75.36 736.358 75.68C737.446 75.936 738.918 76.096 740.774 76.16V80H710.534V76.16C712.326 76.096 713.766 75.904 714.854 75.584C716.006 75.2 716.87 74.624 717.446 73.856C718.086 73.024 718.502 71.904 718.694 70.496C718.95 69.024 719.078 67.168 719.078 64.928V53.12C719.078 49.408 719.014 46.368 718.886 44C718.758 41.568 718.598 39.904 718.406 39.008C718.086 37.408 717.35 36.352 716.198 35.84C715.11 35.328 713.094 35.072 710.15 35.072V31.808L732.422 28.16V64.256ZM718.31 7.808C718.31 5.696 719.014 3.936 720.422 2.528C721.894 1.056 723.654 0.319996 725.702 0.319996C727.814 0.319996 729.574 1.056 730.982 2.528C732.454 3.936 733.19 5.696 733.19 7.808C733.19 9.856 732.454 11.616 730.982 13.088C729.574 14.496 727.814 15.2 725.702 15.2C723.654 15.2 721.894 14.496 720.422 13.088C719.014 11.616 718.31 9.856 718.31 7.808ZM767.109 64.352C767.109 66.976 767.174 69.056 767.302 70.592C767.494 72.064 767.846 73.216 768.358 74.048C768.934 74.816 769.766 75.328 770.854 75.584C772.006 75.84 773.542 76.032 775.462 76.16V80H745.222V76.16C747.078 76.032 748.55 75.84 749.638 75.584C750.79 75.328 751.654 74.816 752.23 74.048C752.87 73.28 753.286 72.192 753.478 70.784C753.67 69.376 753.766 67.456 753.766 65.024V53.024C753.766 49.248 753.702 46.208 753.574 43.904C753.446 41.536 753.286 39.936 753.094 39.104C752.902 38.272 752.646 37.6 752.326 37.088C752.006 36.512 751.526 36.096 750.886 35.84C750.246 35.52 749.446 35.328 748.486 35.264C747.526 35.136 746.31 35.072 744.838 35.072V31.808L763.366 28.16L764.614 36.608H764.998C767.11 33.92 769.606 31.84 772.486 30.368C775.366 28.896 778.534 28.16 781.99 28.16C786.086 28.16 789.382 28.736 791.878 29.888C794.438 30.976 796.71 32.832 798.694 35.456C799.782 36.928 800.742 38.848 801.574 41.216C802.406 43.52 802.822 46.72 802.822 50.816V64.352C802.822 66.976 802.886 69.056 803.014 70.592C803.206 72.064 803.558 73.216 804.07 74.048C804.646 74.816 805.478 75.328 806.566 75.584C807.654 75.84 809.126 76.032 810.982 76.16V80H780.934V76.16C782.854 76.096 784.358 75.936 785.446 75.68C786.598 75.36 787.462 74.816 788.038 74.048C788.614 73.28 788.998 72.192 789.19 70.784C789.382 69.312 789.478 67.392 789.478 65.024V51.968C789.478 48.704 789.286 45.952 788.902 43.712C788.518 41.472 787.878 39.68 786.982 38.336C786.15 36.928 785.03 35.936 783.622 35.36C782.214 34.72 780.454 34.4 778.342 34.4C776.294 34.4 774.534 34.976 773.062 36.128C771.59 37.28 770.31 38.88 769.222 40.928C768.646 42.08 768.134 43.584 767.686 45.44C767.302 47.232 767.109 49.12 767.109 51.104V64.352ZM864.028 71.072C858.204 77.664 850.94 80.96 842.236 80.96C838.268 80.96 834.652 80.352 831.388 79.136C828.188 77.856 825.436 76.096 823.132 73.856C820.828 71.552 819.036 68.832 817.756 65.696C816.476 62.56 815.836 59.072 815.836 55.232C815.836 51.264 816.508 47.648 817.852 44.384C819.196 41.056 821.084 38.208 823.516 35.84C826.012 33.408 828.924 31.52 832.252 30.176C835.644 28.832 839.356 28.16 843.388 28.16C850.172 28.16 855.452 29.984 859.228 33.632C863.004 37.28 864.892 42.4 864.892 48.992C864.892 50.016 864.732 50.656 864.412 50.912C864.092 51.104 863.196 51.2 861.724 51.2H830.812C830.556 51.776 830.428 52.832 830.428 54.368C830.428 60.64 831.772 65.6 834.46 69.248C837.212 72.896 840.924 74.72 845.596 74.72C848.284 74.72 850.94 74.112 853.564 72.896C856.252 71.68 858.844 69.952 861.34 67.712L864.028 71.072ZM845.404 45.824C847.964 45.824 849.596 45.696 850.3 45.44C851.068 45.12 851.452 44.416 851.452 43.328C851.452 40.512 850.652 38.208 849.052 36.416C847.452 34.624 845.436 33.728 843.004 33.728C840.252 33.728 837.788 34.88 835.612 37.184C833.5 39.424 832.124 42.304 831.484 45.824H845.404ZM873.528 73.856C873.528 71.808 874.2 70.08 875.544 68.672C876.952 67.2 878.68 66.464 880.728 66.464C882.84 66.464 884.6 67.2 886.008 68.672C887.416 70.08 888.12 71.808 888.12 73.856C888.12 75.84 887.416 77.536 886.008 78.944C884.6 80.288 882.84 80.96 880.728 80.96C878.68 80.96 876.952 80.288 875.544 78.944C874.2 77.536 873.528 75.84 873.528 73.856ZM945.121 71.072C939.297 77.664 932.033 80.96 923.329 80.96C919.361 80.96 915.745 80.352 912.481 79.136C909.281 77.856 906.529 76.096 904.225 73.856C901.921 71.552 900.129 68.832 898.849 65.696C897.569 62.56 896.929 59.072 896.929 55.232C896.929 51.264 897.601 47.648 898.945 44.384C900.289 41.056 902.177 38.208 904.609 35.84C907.105 33.408 910.017 31.52 913.345 30.176C916.737 28.832 920.449 28.16 924.481 28.16C931.265 28.16 936.545 29.984 940.321 33.632C944.097 37.28 945.985 42.4 945.985 48.992C945.985 50.016 945.825 50.656 945.505 50.912C945.185 51.104 944.289 51.2 942.817 51.2H911.905C911.649 51.776 911.521 52.832 911.521 54.368C911.521 60.64 912.865 65.6 915.553 69.248C918.305 72.896 922.017 74.72 926.689 74.72C929.377 74.72 932.033 74.112 934.657 72.896C937.345 71.68 939.937 69.952 942.433 67.712L945.121 71.072ZM926.497 45.824C929.057 45.824 930.689 45.696 931.393 45.44C932.161 45.12 932.545 44.416 932.545 43.328C932.545 40.512 931.745 38.208 930.145 36.416C928.545 34.624 926.529 33.728 924.097 33.728C921.345 33.728 918.881 34.88 916.705 37.184C914.593 39.424 913.217 42.304 912.577 45.824H926.497ZM1001.28 71.072C995.454 77.664 988.19 80.96 979.486 80.96C975.518 80.96 971.902 80.352 968.638 79.136C965.438 77.856 962.686 76.096 960.382 73.856C958.078 71.552 956.286 68.832 955.006 65.696C953.726 62.56 953.086 59.072 953.086 55.232C953.086 51.264 953.758 47.648 955.102 44.384C956.446 41.056 958.334 38.208 960.766 35.84C963.262 33.408 966.174 31.52 969.502 30.176C972.894 28.832 976.606 28.16 980.638 28.16C987.422 28.16 992.702 29.984 996.478 33.632C1000.25 37.28 1002.14 42.4 1002.14 48.992C1002.14 50.016 1001.98 50.656 1001.66 50.912C1001.34 51.104 1000.45 51.2 998.974 51.2H968.062C967.806 51.776 967.678 52.832 967.678 54.368C967.678 60.64 969.022 65.6 971.71 69.248C974.462 72.896 978.174 74.72 982.846 74.72C985.534 74.72 988.19 74.112 990.814 72.896C993.502 71.68 996.094 69.952 998.59 67.712L1001.28 71.072ZM982.654 45.824C985.214 45.824 986.846 45.696 987.55 45.44C988.318 45.12 988.702 44.416 988.702 43.328C988.702 40.512 987.902 38.208 986.302 36.416C984.702 34.624 982.686 33.728 980.254 33.728C977.502 33.728 975.038 34.88 972.862 37.184C970.75 39.424 969.374 42.304 968.734 45.824H982.654Z" fill="#EBEBEB"/>
</svg>
